<svg width="544" height="580" viewBox="0 0 544 580" fill="none" xmlns="http://www.w3.org/2000/svg">
<g clip-path="url(#clip0_893_1245)">
<rect width="544" height="580" rx="8" fill="#0061EE"/>
<path d="M60.21 244.218V647.52H483.963V244.218L272.089 170.663L60.21 244.218Z" fill="white"/>
<path d="M361.988 519.676C363.339 517.713 364.504 515.612 365.288 513.362C369.553 501.101 361.204 493.933 359.155 492.399C359.062 492.331 358.968 492.262 358.869 492.194C358.85 492.181 358.831 492.169 358.819 492.156C356.988 490.897 354.909 489.931 352.642 489.351C345.961 487.631 339.224 489.569 334.511 493.889C332.307 487.88 327.213 483.056 320.495 481.503C318.21 480.974 315.925 480.874 313.721 481.148C313.702 481.148 313.677 481.148 313.652 481.154C313.54 481.167 313.428 481.192 313.316 481.204C310.8 481.616 300.079 484.134 298.229 496.987C297.887 499.349 297.955 501.749 298.254 504.118C299.362 512.87 303.005 521.091 309.119 529.581C311.23 532.386 313.341 534.842 315.234 536.899C319.455 541.474 325.987 543.07 331.84 540.951C334.467 539.997 337.475 538.781 340.644 537.267C349.971 532.548 356.982 526.926 361.982 519.67L361.988 519.676Z" fill="#FF76B8"/>
<path d="M237.993 466.806C210.856 466.806 188.776 444.726 188.776 417.59V404.84C188.776 396.431 195.594 389.609 204.008 389.609C212.423 389.609 219.24 396.426 219.24 404.84V417.59C219.24 427.933 227.655 436.347 237.998 436.347C248.341 436.347 256.755 427.933 256.755 417.59V199.209C256.755 190.799 263.573 183.977 271.987 183.977C280.402 183.977 287.219 190.794 287.219 199.209V417.59C287.219 444.726 265.14 466.806 238.003 466.806H237.993Z" fill="#FFCD00"/>
<path d="M287.207 199.204C287.207 190.795 280.39 183.972 271.975 183.972C263.56 183.972 256.743 190.789 256.743 199.204V254.973C261.683 254.078 266.776 253.61 271.975 253.61C277.175 253.61 282.262 254.078 287.207 254.973V199.204Z" fill="#FFB600"/>
<path d="M483.743 244.213C460.625 156.627 384.613 90.5301 291.944 82.156V79.9633C291.944 68.9387 283.006 60 271.981 60C260.956 60 252.018 68.9387 252.018 79.9633V82.156C159.349 90.5301 83.3368 156.627 60.2192 244.213C58.6828 250.038 65.5662 254.322 70.1856 250.455C84.9495 238.093 103.977 230.645 124.744 230.645C152.918 230.645 177.888 244.345 193.364 265.448C195.857 268.847 200.878 268.847 203.371 265.448C218.847 244.345 243.817 230.645 271.986 230.645C300.156 230.645 325.13 244.345 340.606 265.448C343.099 268.847 348.121 268.847 350.613 265.448C366.09 244.345 391.059 230.645 419.234 230.645C440.001 230.645 459.023 238.088 473.792 250.45C478.411 254.317 485.295 250.033 483.758 244.208L483.743 244.213Z" fill="#FF7300"/>
<path d="M379.898 123.878L377.797 127.72C377.125 128.946 375.37 128.946 374.698 127.72L372.597 123.878C369.748 118.669 365.465 114.38 360.25 111.531L356.409 109.43C355.183 108.758 355.183 107.003 356.409 106.332L360.25 104.231C365.459 101.382 369.748 97.0979 372.597 91.8832L374.698 88.0421C375.37 86.816 377.125 86.816 377.797 88.0421L379.898 91.8832C382.747 97.0928 387.03 101.382 392.245 104.231L396.086 106.332C397.312 107.003 397.312 108.758 396.086 109.43L392.245 111.531C387.036 114.38 382.747 118.664 379.898 123.878Z" fill="white"/>
<path d="M276.321 60.4834C284.13 67.3261 282.125 81.744 282.125 81.744L291.939 82.1612V79.9685C291.939 70.4345 285.254 62.4675 276.315 60.4834H276.321Z" fill="#FB5500"/>
<path d="M214.992 323.309L112.163 277L85.9999 335.095L188.828 381.404L214.992 323.309Z" fill="#02873E"/>
<path d="M200.665 327.77L118.32 290.686L100.322 330.65L182.666 367.734L200.665 327.77Z" fill="#01A652"/>
<path d="M138.518 354.918C152.305 361.127 168.57 354.86 174.848 340.921C181.126 326.981 175.038 310.648 161.251 304.439C147.465 298.23 131.199 304.497 124.921 318.436C118.644 332.375 124.731 348.709 138.518 354.918Z" fill="#02873E"/>
<path d="M455.476 343.062C454.436 339.37 450.77 337.023 446.983 337.624C438.928 338.908 431.437 343.492 426.696 350.901C421.955 358.31 420.929 367.032 423.136 374.886C424.175 378.578 427.841 380.925 431.628 380.324C439.684 379.04 447.174 374.456 451.916 367.047C456.657 359.638 457.683 350.916 455.476 343.062Z" fill="#02873E"/>
<path d="M357.568 320.429C365.232 308.993 380.72 305.937 392.157 313.602L429.585 338.69C441.022 346.354 444.077 361.842 436.413 373.279C428.748 384.715 413.26 387.77 401.823 380.106L364.395 355.018C352.958 347.354 349.903 331.865 357.568 320.429Z" fill="#FFCE00"/>
<path d="M370.562 386.279C359.126 378.615 356.071 363.126 363.735 351.69L388.823 314.262C396.487 302.825 411.976 299.77 423.412 307.434C434.848 315.099 437.904 330.587 430.239 342.024L405.151 379.452C397.487 390.889 381.999 393.944 370.562 386.279Z" fill="#FFCE00"/>
<path d="M398.4 356.731C403.961 355.394 407.386 349.802 406.049 344.241C404.712 338.68 399.12 335.255 393.559 336.592C387.998 337.929 384.573 343.521 385.91 349.082C387.247 354.643 392.839 358.068 398.4 356.731Z" fill="#FF7300"/>
<path d="M378.57 392.623C381.471 391.809 383.313 388.927 382.837 385.955C381.827 379.63 378.228 373.75 372.408 370.023C366.59 366.301 359.742 365.493 353.576 367.228C350.675 368.042 348.832 370.924 349.309 373.896C350.318 380.221 353.918 386.101 359.737 389.828C365.555 393.55 372.404 394.358 378.57 392.623Z" fill="#02873E"/>
<path d="M246.448 157.861C237.299 157.861 229.103 152.129 226.035 143.607C225.386 141.815 226.339 139.845 228.15 139.202C229.96 138.559 231.95 139.503 232.6 141.295C234.673 147.082 240.242 150.967 246.434 150.967C252.626 150.967 258.195 147.082 260.268 141.295C260.918 139.503 262.908 138.559 264.718 139.202C266.529 139.845 267.482 141.815 266.833 143.607C263.765 152.129 255.569 157.861 246.434 157.861" fill="#141313"/>
<path d="M297.806 157.861C288.657 157.861 280.462 152.129 277.394 143.607C276.744 141.815 277.698 139.845 279.508 139.202C281.319 138.559 283.309 139.503 283.958 141.295C286.031 147.082 291.601 150.967 297.792 150.967C303.984 150.967 309.554 147.082 311.627 141.295C312.276 139.503 314.266 138.559 316.077 139.202C317.887 139.845 318.841 141.815 318.191 143.607C315.123 152.129 306.928 157.861 297.792 157.861" fill="#141313"/>
<path d="M272.221 189.748C242.092 189.748 213.29 178.64 191.123 158.476C189.713 157.19 189.616 155.002 190.915 153.606C192.215 152.197 194.426 152.115 195.835 153.401C216.718 172.402 243.847 182.867 272.221 182.867C300.594 182.867 327.723 172.402 348.606 153.401C350.016 152.115 352.227 152.197 353.526 153.606C354.825 155.002 354.742 157.19 353.319 158.476C331.151 178.64 302.349 189.748 272.221 189.748Z" fill="#141313"/>
</g>
<defs>
<clipPath id="clip0_893_1245">
<rect width="544" height="580" rx="8" fill="white"/>
</clipPath>
</defs>
</svg>
