<svg width="544" height="580" viewBox="0 0 544 580" fill="none" xmlns="http://www.w3.org/2000/svg">
<rect width="544" height="580" rx="8" fill="#0162F1"/>
<circle cx="271.999" cy="301.429" r="230.429" fill="#00A4FF"/>
<circle cx="271.999" cy="363.504" r="168.354" fill="#FF6700"/>
<path d="M248.086 326.441L173.441 401.086C160.495 414.033 160.495 435.022 173.441 447.968L248.086 522.614C261.032 535.56 282.022 535.56 294.968 522.614L369.614 447.968C382.56 435.022 382.56 414.033 369.614 401.087L294.968 326.441C282.022 313.495 261.032 313.495 248.086 326.441Z" fill="#FFBF00"/>
<path d="M253.14 246.551C246.057 246.551 239.705 242.069 237.334 235.398C236.709 233.64 237.626 231.71 239.384 231.085C241.142 230.46 243.073 231.378 243.697 233.135C245.114 237.12 248.909 239.797 253.14 239.797C257.37 239.797 261.165 237.12 262.582 233.135C263.207 231.378 265.137 230.46 266.895 231.085C268.653 231.71 269.57 233.64 268.945 235.398C266.574 242.069 260.222 246.551 253.14 246.551Z" fill="#141313"/>
<path d="M291.003 246.551C283.921 246.551 277.568 242.069 275.197 235.398C274.572 233.64 275.49 231.71 277.248 231.085C279.005 230.46 280.936 231.378 281.561 233.135C282.977 237.12 286.772 239.797 291.003 239.797C295.233 239.797 299.029 237.12 300.445 233.135C301.07 231.378 303 230.46 304.758 231.085C306.516 231.71 307.433 233.64 306.809 235.398C304.437 242.069 298.085 246.551 291.003 246.551Z" fill="#141313"/>
<path d="M272.142 270.302C249.725 270.302 228.295 261.952 211.799 246.789C210.426 245.527 210.336 243.392 211.598 242.018C212.861 240.645 214.996 240.555 216.369 241.818C231.614 255.83 251.421 263.548 272.142 263.548C292.863 263.548 312.669 255.83 327.916 241.818C329.289 240.555 331.426 240.645 332.686 242.018C333.949 243.392 333.859 245.529 332.486 246.789C315.99 261.952 294.559 270.302 272.142 270.302Z" fill="#141313"/>
<path d="M274.946 432.905C271.188 432.905 267.575 431.777 264.498 429.642C261.497 427.562 259.2 424.671 257.861 421.283C257.176 419.547 258.026 417.587 259.76 416.9C261.495 416.215 263.455 417.065 264.142 418.799C265.907 423.264 270.147 426.149 274.946 426.149C279.745 426.149 283.985 423.264 285.75 418.799C286.435 417.063 288.398 416.214 290.133 416.9C291.868 417.585 292.718 419.547 292.032 421.283C290.692 424.671 288.398 427.562 285.394 429.642C282.315 431.775 278.702 432.905 274.946 432.905Z" fill="#141313"/>
<path d="M300.21 411.069C295.448 411.069 290.871 409.639 286.971 406.936C283.166 404.298 280.256 400.634 278.56 396.34C277.875 394.605 278.725 392.644 280.459 391.958C282.194 391.273 284.155 392.123 284.841 393.856C287.351 400.208 293.385 404.313 300.212 404.313C307.039 404.313 313.07 400.208 315.582 393.856C316.267 392.121 318.229 391.271 319.965 391.958C321.7 392.642 322.55 394.605 321.863 396.34C320.166 400.634 317.258 404.298 313.453 406.936C309.553 409.639 304.975 411.069 300.214 411.069H300.21Z" fill="#141313"/>
<path d="M249.682 411.069C244.92 411.069 240.343 409.639 236.442 406.936C232.638 404.298 229.728 400.634 228.032 396.34C227.347 394.605 228.197 392.644 229.93 391.957C231.664 391.273 233.626 392.122 234.313 393.856C236.823 400.208 242.856 404.313 249.683 404.313C256.51 404.313 262.542 400.208 265.054 393.856C265.739 392.121 267.701 391.271 269.436 391.957C271.172 392.642 272.022 394.605 271.335 396.34C269.637 400.634 266.729 404.298 262.925 406.936C259.024 409.639 254.447 411.069 249.685 411.069H249.682Z" fill="#141313"/>
<path d="M253.557 126.985C244.775 126.985 237.629 119.841 237.629 111.058C237.629 109.193 239.141 107.681 241.006 107.681C242.871 107.681 244.383 109.193 244.383 111.058C244.383 116.115 248.497 120.232 253.557 120.232C258.616 120.232 262.731 116.115 262.731 111.058C262.731 109.193 264.243 107.681 266.107 107.681C267.972 107.681 269.484 109.193 269.484 111.058C269.484 119.839 262.34 126.985 253.557 126.985Z" fill="#141313"/>
<path d="M290.868 126.985C282.086 126.985 274.94 119.841 274.94 111.058C274.94 109.193 276.453 107.681 278.317 107.681C280.182 107.681 281.694 109.193 281.694 111.058C281.694 116.115 285.808 120.232 290.868 120.232C295.928 120.232 300.042 116.115 300.042 111.058C300.042 109.193 301.554 107.681 303.419 107.681C305.284 107.681 306.796 109.193 306.796 111.058C306.796 119.839 299.652 126.985 290.868 126.985Z" fill="#141313"/>
<path d="M272.212 154.121C245.665 154.121 222.063 137.255 213.478 112.152C212.874 110.386 213.815 108.467 215.581 107.863C217.346 107.259 219.265 108.201 219.869 109.966C227.518 132.336 248.554 147.367 272.212 147.367C295.869 147.367 316.905 132.336 324.554 109.966C325.158 108.201 327.077 107.259 328.842 107.863C330.608 108.467 331.548 110.386 330.945 112.152C322.362 137.255 298.758 154.121 272.212 154.121Z" fill="#141313"/>
<path d="M420.538 130.75L418.681 134.143C418.087 135.226 416.533 135.226 415.943 134.143L414.086 130.75C411.566 126.144 407.783 122.361 403.177 119.841L399.784 117.984C398.701 117.391 398.701 115.836 399.784 115.246L403.177 113.389C407.783 110.87 411.566 107.087 414.086 102.48L415.943 99.0876C416.537 98.004 418.091 98.004 418.681 99.0876L420.538 102.48C423.057 107.087 426.841 110.87 431.447 113.389L434.84 115.246C435.923 115.84 435.923 117.394 434.84 117.984L431.447 119.841C426.841 122.361 423.057 126.144 420.538 130.75Z" fill="white"/>
<path d="M441.347 95.5924L440.284 97.5347C439.944 98.1551 439.054 98.1551 438.716 97.5347L437.653 95.5924C436.211 92.9552 434.045 90.7894 431.408 89.3469L429.465 88.2837C428.845 87.9439 428.845 87.0539 429.465 86.7163L431.408 85.6531C434.045 84.2106 436.211 82.0448 437.653 79.4076L438.716 77.4653C439.056 76.8449 439.946 76.8449 440.284 77.4653L441.347 79.4076C442.789 82.0448 444.955 84.2106 447.592 85.6531L449.535 86.7163C450.155 87.0561 450.155 87.9461 449.535 88.2837L447.592 89.3469C444.955 90.7894 442.789 92.9552 441.347 95.5924Z" fill="#00A4FF"/>
</svg>
