<svg width="544" height="580" viewBox="0 0 544 580" fill="none" xmlns="http://www.w3.org/2000/svg">
<rect width="544" height="580" rx="8" fill="#FFCE00"/>
<path d="M244.663 252.755L247.991 270.654C249.219 277.252 244.854 283.609 238.243 284.841L69.5742 316.177C62.9772 317.405 56.6193 313.041 55.3881 306.43L52.061 288.53C42.1938 235.381 77.3198 184.217 130.469 174.35C183.632 164.48 234.799 199.62 244.663 252.755Z" fill="#00A3FF"/>
<path d="M264.68 360.52L268.007 378.419C269.236 385.016 264.871 391.374 258.26 392.605L89.5909 423.942C82.9939 425.17 76.636 420.806 75.4048 414.194L72.0776 396.295C62.2104 343.146 97.3364 291.982 150.486 282.115C203.635 272.248 254.799 307.373 264.666 360.522L264.68 360.52Z" fill="#00A3FF"/>
<path d="M502.947 399.806L504.599 397.383C505.126 396.61 506.301 396.726 506.667 397.587L507.814 400.286C509.372 403.948 511.947 407.089 515.235 409.332L517.658 410.984C518.431 411.511 518.315 412.686 517.454 413.052L514.755 414.199C511.094 415.757 507.953 418.332 505.71 421.621L504.057 424.043C503.53 424.816 502.357 424.701 501.99 423.839L500.842 421.14C499.285 417.479 496.71 414.338 493.421 412.095L490.998 410.442C490.225 409.915 490.341 408.742 491.202 408.375L493.901 407.227C497.563 405.67 500.703 403.095 502.947 399.806Z" fill="white"/>
<path d="M58.7303 167.393L49.1216 163.874L46.0583 154.111C45.7843 153.234 44.5511 153.205 44.2356 154.068L40.7165 163.677L30.9532 166.74C30.0761 167.014 30.0474 168.247 30.9102 168.563L40.5189 172.082L43.5805 181.846C43.8573 182.724 45.0877 182.752 45.4032 181.889L48.9223 172.28L58.6856 169.217C59.5644 168.942 59.5914 167.71 58.7286 167.394" fill="white"/>
<path d="M442.169 229.516L311.2 203.531C260.867 193.544 212.015 226.485 202.085 277.106L202.085 277.108C192.155 327.729 224.908 376.861 275.241 386.847L406.21 412.833C456.543 422.819 505.396 389.879 515.325 339.258L515.326 339.255C525.256 288.634 492.502 239.503 442.169 229.516Z" fill="#FF7300"/>
<mask id="mask0_896_2303" style="mask-type:luminance" maskUnits="userSpaceOnUse" x="200" y="201" width="318" height="214">
<path d="M442.168 229.516L311.199 203.531C260.866 193.544 212.014 226.485 202.084 277.106L202.084 277.108C192.154 327.729 224.907 376.861 275.24 386.847L406.209 412.833C456.542 422.819 505.395 389.879 515.324 339.258L515.325 339.255C525.255 288.634 492.501 239.502 442.168 229.516Z" fill="white"/>
</mask>
<g mask="url(#mask0_896_2303)">
<path d="M324.832 373.386C324.832 373.386 345.008 386.72 338.525 411.59C318.975 416.536 312.634 408.827 312.634 408.827L324.829 373.389L324.832 373.386Z" fill="#191818"/>
</g>
<path d="M305.42 358.099H304.515C302.977 358.099 301.777 356.833 301.777 355.293C301.777 355.284 301.777 355.275 301.777 355.264C301.777 336.892 286.88 322 268.501 322C250.123 322 235.225 336.892 235.225 355.264C235.225 355.273 235.225 355.282 235.225 355.293C235.225 356.831 234.028 358.099 232.487 358.099H231.583C217.506 358.099 205.517 369.04 205.017 383.103C204.492 397.868 216.308 410 230.96 410H306.04C320.692 410 332.508 397.866 331.983 383.103C331.483 369.04 319.494 358.099 305.417 358.099H305.42Z" fill="white"/>
<path d="M347.926 262.623C346.9 262.623 345.866 262.522 344.837 262.316C338.287 261 333.241 255.649 332.278 249.005C332.027 247.261 333.228 245.64 334.962 245.387C336.697 245.134 338.308 246.342 338.56 248.086C339.135 252.066 342.157 255.27 346.079 256.059C350.002 256.847 354.017 255.058 356.068 251.607C356.967 250.094 358.916 249.602 360.42 250.506C361.925 251.409 362.415 253.37 361.516 254.883C358.627 259.74 353.413 262.625 347.926 262.625V262.623Z" fill="#191818"/>
<path d="M382.975 269.669C381.949 269.669 380.915 269.568 379.885 269.362C373.336 268.046 368.29 262.695 367.327 256.051C367.075 254.307 368.277 252.686 370.011 252.433C371.747 252.18 373.357 253.388 373.608 255.132C374.184 259.112 377.205 262.316 381.128 263.105C385.051 263.893 389.065 262.104 391.117 258.653C392.016 257.14 393.965 256.648 395.469 257.552C396.974 258.455 397.463 260.416 396.565 261.929C393.676 266.786 388.461 269.671 382.975 269.671V269.669Z" fill="#191818"/>
<path d="M374.598 289.618C369.08 289.618 363.534 289.073 358.031 287.965C337.282 283.793 318.991 272.034 306.529 254.852C305.498 253.427 305.807 251.432 307.223 250.392C308.64 249.353 310.624 249.666 311.658 251.09C323.18 266.978 340.093 277.849 359.278 281.706C378.463 285.562 398.229 282.062 414.939 271.851C416.436 270.935 418.389 271.415 419.298 272.922C420.209 274.429 419.732 276.391 418.233 277.308C404.955 285.424 389.887 289.62 374.6 289.62L374.598 289.618Z" fill="#191818"/>
<mask id="mask1_896_2303" style="mask-type:alpha" maskUnits="userSpaceOnUse" x="51" y="171" width="218" height="253">
<path d="M245.718 251.604L249.032 269.429C250.255 275.998 245.878 282.335 239.256 283.568L70.316 314.95C63.7084 316.181 57.3459 311.84 56.1197 305.257L52.8061 287.432C42.9792 234.506 78.2071 183.512 131.442 173.63C184.69 163.745 235.894 198.692 245.718 251.604Z" fill="#00A3FF"/>
<path d="M264.82 360.095L268.168 378.109C269.404 384.749 265.037 391.143 258.416 392.376L89.477 423.765C82.8694 424.996 76.4966 420.599 75.2578 413.945L71.9095 395.931C61.9801 342.441 97.1245 290.987 150.359 281.103C203.593 271.219 254.876 306.608 264.806 360.098L264.82 360.095Z" fill="#00A3FF"/>
</mask>
<g mask="url(#mask1_896_2303)">
<path d="M69.1127 359.327C53.3258 359.327 40.5264 372.126 40.5264 387.913C40.5264 403.7 53.3258 416.499 69.1127 416.499C84.8997 416.499 97.6991 403.7 97.6991 387.913C97.6991 372.126 84.8997 359.327 69.1127 359.327ZM69.1127 398.87C63.0618 398.87 58.1559 393.964 58.1559 387.913C58.1559 381.862 67.4755 367.827 73.5264 367.827C79.5773 367.827 84.0264 379.327 80.0696 387.913C80.0696 393.964 75.1637 398.87 69.1127 398.87Z" fill="black"/>
</g>
<path d="M68.0445 359.059C52.683 359.059 40.2285 371.513 40.2285 386.875C40.2285 402.236 52.683 414.691 68.0445 414.691C83.406 414.691 95.8605 402.236 95.8605 386.875C95.8605 371.513 83.406 359.059 68.0445 359.059ZM68.0445 397.536C62.1567 397.536 57.3829 392.762 57.3829 386.875C57.3829 380.987 62.1567 376.213 68.0445 376.213C73.9323 376.213 78.7061 380.987 78.7061 386.875C78.7061 392.762 73.9323 397.536 68.0445 397.536Z" fill="#01A652"/>
<path d="M142.075 249.512C131.254 250.899 120.224 249.808 109.926 246.304C108.667 245.876 107.994 244.507 108.422 243.25C108.85 241.991 110.217 241.318 111.476 241.746C122.318 245.435 134.033 246.257 145.356 244.12C153.975 242.495 162.045 239.272 169.337 234.541C170.452 233.817 171.943 234.136 172.667 235.251C173.39 236.367 173.072 237.857 171.957 238.581C164.136 243.654 155.485 247.109 146.247 248.852C144.861 249.113 143.468 249.334 142.072 249.512L142.075 249.512Z" fill="#141313"/>
<path d="M133.064 223.958C131.92 224.104 130.806 223.411 130.459 222.272C129.112 217.86 124.81 215.076 120.227 215.651L120.201 215.654C115.63 216.24 112.161 219.996 111.948 224.596C111.887 225.924 110.759 226.95 109.432 226.89C108.104 226.828 107.077 225.702 107.139 224.374C107.46 217.433 112.694 211.764 119.589 210.88L119.628 210.875C126.542 210.008 133.033 214.21 135.065 220.868C135.453 222.14 134.736 223.486 133.464 223.873C133.332 223.912 133.198 223.942 133.065 223.959L133.064 223.959L133.064 223.958Z" fill="#141313"/>
<path d="M155.704 230.259C163.826 229.218 169.566 221.79 168.525 213.668C167.484 205.546 160.056 199.805 151.934 200.847C143.812 201.888 138.072 209.316 139.113 217.438C140.154 225.56 147.582 231.3 155.704 230.259Z" fill="#FAF6F4"/>
<path d="M155.705 230.259C163.827 229.218 169.567 221.79 168.526 213.667C167.485 205.545 160.057 199.805 151.935 200.846C143.813 201.888 138.073 209.316 139.114 217.438C140.155 225.56 147.583 231.3 155.705 230.259Z" fill="white"/>
<mask id="mask2_896_2303" style="mask-type:luminance" maskUnits="userSpaceOnUse" x="138" y="200" width="31" height="31">
<path d="M155.707 230.259C163.829 229.218 169.569 221.789 168.528 213.667C167.487 205.545 160.059 199.805 151.937 200.846C143.815 201.887 138.075 209.316 139.116 217.438C140.157 225.56 147.585 231.3 155.707 230.259Z" fill="white"/>
</mask>
<g mask="url(#mask2_896_2303)">
<path d="M154.839 223.496C159.226 222.934 162.327 218.921 161.765 214.534C161.202 210.147 157.19 207.047 152.803 207.609C148.416 208.172 145.315 212.184 145.878 216.571C146.44 220.958 150.452 224.058 154.839 223.496Z" fill="#141313"/>
</g>
<path d="M456.439 122.561L430.561 148.439C428.594 150.406 428.594 153.594 430.561 155.561L456.439 181.439C458.406 183.406 461.594 183.406 463.561 181.439L489.439 155.561C491.406 153.594 491.406 150.406 489.439 148.439L463.561 122.561C461.594 120.594 458.406 120.594 456.439 122.561Z" fill="#00A3FF"/>
<path d="M460.003 139.157L447.16 152L460.003 164.843L472.846 152L460.003 139.157Z" fill="#FFCE00"/>
</svg>
